<?xml version="1.0" encoding="utf-8"?>
<!-- Generator: Adobe Illustrator 21.0.2, SVG Export Plug-In . SVG Version: 6.00 Build 0)  -->
<svg version="1.1" id="Layer_1" xmlns="http://www.w3.org/2000/svg" xmlns:xlink="http://www.w3.org/1999/xlink" x="0px" y="0px"
	 viewBox="0 0 50 50" style="enable-background:new 0 0 50 50;" xml:space="preserve">
<style type="text/css">
	.st0{fill:#F2F2F2;}
</style>
<path class="st0" d="M20.4,1.4C7.4,4-1.1,16.6,1.4,29.6s15.2,21.5,28.2,18.9c13-2.6,21.5-15.2,18.9-28.2C46,7.4,33.4-1.1,20.4,1.4z
	 M37.2,33.1c-0.8,0.9-1.8,1.7-2.8,2.4c-1.1,0.7-2.2,1.2-3.3,1.5c-0.4,0.1-0.8,0.2-1.2,0.3c-1.8,0.4-3.7,0.3-5.6-0.1
	c-2.4-0.5-4.5-1.7-6.3-3.6c-1.6-1.5-2.6-3.4-3.2-5.6c-0.1-0.3-0.2-0.6-0.2-0.9c-0.4-1.8-0.3-3.7,0.1-5.5c0.7-2.7,2-4.9,3.9-6.5
	c1.9-1.7,4-2.8,6.3-3.2l0.1,0c1.2-0.2,2.5-0.3,3.8-0.2c1.3,0.2,2.6,0.5,3.8,1c0,0,0.1,0.1,0.1,0.1c0,0,0,0.1,0,0.1
	c-0.4,0.5-0.7,0.9-1.1,1.4c-0.3,0.4-0.6,0.9-0.9,1.3c0,0-0.1,0.1-0.1,0.1c0,0-0.1,0-0.1,0c-2.5-0.8-5-0.5-7.5,0.8
	c-2,1.1-3.3,2.7-4.1,4.9c1.8-0.4,4.1-0.8,7-1.4c0,0,0,0,0.1,0c0.2,0,0.6-0.1,1-0.2l0.7-0.1c0,0.2,0.1,0.5,0.2,0.9
	c0.1,0.3,0.1,0.6,0.2,0.9c0.1,0.5,0,0.9-0.3,1.3c-0.2,0.4-0.6,0.6-1.1,0.7c0,0,0,0,0,0c-1.9,0.4-4.7,0.9-8.4,1.6
	c0,0.6,0.1,1.2,0.3,1.8c0,0.1,0.1,0.2,0.1,0.3c2-0.4,4.8-0.9,8.4-1.7c0,0,0,0,0,0c0.5-0.1,0.9,0,1.3,0.3c0.4,0.3,0.7,0.7,0.8,1.1
	c0.1,0.3,0.1,0.6,0.2,0.9c0.1,0.3,0.1,0.6,0.2,0.9l-0.7,0.1c-0.4,0.1-0.8,0.1-1,0.2c0,0,0,0-0.1,0c-1.7,0.3-4.1,0.8-7.2,1.4
	c1.9,2.2,4.3,3.4,7,3.3c2.7,0,5-0.9,6.8-2.7c0.1-0.1,0.2-0.2,0.3-0.2c0.2,0,0.3,0,0.4,0.1c0.1,0.1,0.4,0.2,0.7,0.4
	c0.3,0.2,0.6,0.3,0.8,0.5c0.2,0.1,0.4,0.2,0.7,0.3c0.1,0.1,0.2,0.2,0.3,0.4C37.4,32.8,37.3,32.9,37.2,33.1z"/>
</svg>
